# xmcd
#
# Track frame offsets:
#	150
#	14489
#	30508
#	47560
#	59412
#	75453
#	88842
#	103916
#	117652
#	134027
#	145884
#	165104
#
# Disc length: 2360 seconds
#
# Revision: 1
# Processed by: cddbd v1.5.2PL0 Copyright (c) Steve Scherf et al.
# Submitted via: audiograbber 1.83.01
#
DISCID=a109360c
DTITLE=Glynn Martin - Uncle Sam, Mr. Jukebox and My Ex-Wife
DYEAR=2001
DGENRE=Country
TTITLE0=Bayou Moon
TTITLE1=Daddy's Sunday Morning Go To Meeting Suit
TTITLE2=Yellow Pages
TTITLE3=Uncle Sam, Mr. Jukebox and My Ex-Wife
TTITLE4=Your Love Amazes Me
TTITLE5=Five And Dime Man
TTITLE6=Lucille
TTITLE7=Dig A Little Deeper
TTITLE8=The Letters
TTITLE9=Puttin' Down The Bottle
TTITLE10=The Diplomat
TTITLE11=Rusty
EXTD=
EXTT0=
EXTT1=
EXTT2=
EXTT3=
EXTT4=
EXTT5=
EXTT6=
EXTT7=
EXTT8=
EXTT9=
EXTT10=
EXTT11=
PLAYORDER=
